<svg width="380" height="549" viewBox="0 0 380 549" fill="none" xmlns="http://www.w3.org/2000/svg">
<rect x="380" y="549" width="380" height="549" transform="rotate(-180 380 549)" fill="#1D2228"/>
<path d="M380 435.245C370.276 437.054 360.248 438 350 438C259.978 438 187 365.022 187 275C187 184.978 259.978 112 350 112C360.248 112 370.276 112.946 380 114.755V435.245Z" fill="#ACA563" fill-opacity="0.17"/>
<circle cx="305" cy="103" r="60" fill="#ACA563" fill-opacity="0.17"/>
<path d="M0 90.247C17.8416 86.1593 36.4187 84 55.5 84C192.19 84 303 194.81 303 331.5C303 425.379 250.732 507.05 173.709 549H0V90.247Z" fill="#2B4D61" fill-opacity="0.17"/>
</svg>
